<?xml version="1.0" encoding="UTF-8" standalone="no"?>
<svg
   version="1.1"
   id="Layer_1"
   x="0px"
   y="0px"
   width="100%"
   viewBox="0 0 512 512"
   enable-background="new 0 0 512 512"
   xml:space="preserve"
   sodipodi:docname="ilitransformer.svg"
   inkscape:version="1.4.4 (dcaf3e7, 2026-05-05)"
   xmlns:inkscape="http://www.inkscape.org/namespaces/inkscape"
   xmlns:sodipodi="http://sodipodi.sourceforge.net/DTD/sodipodi-0.dtd"
   xmlns="http://www.w3.org/2000/svg"
   xmlns:svg="http://www.w3.org/2000/svg"><defs
   id="defs11" /><sodipodi:namedview
   id="namedview11"
   pagecolor="#ffffff"
   bordercolor="#000000"
   borderopacity="0.25"
   inkscape:showpageshadow="2"
   inkscape:pageopacity="0.0"
   inkscape:pagecheckerboard="0"
   inkscape:deskcolor="#d1d1d1"
   inkscape:zoom="1.71875"
   inkscape:cx="256.29091"
   inkscape:cy="256"
   inkscape:window-width="2062"
   inkscape:window-height="1183"
   inkscape:window-x="52"
   inkscape:window-y="30"
   inkscape:window-maximized="0"
   inkscape:current-layer="Layer_1" />
<path
   fill="#05468B"
   opacity="1.000000"
   stroke="none"
   d=" M1.000000,434.000000   C1.000000,359.645782 1.000000,285.291534 1.346797,210.390839   C17.118872,178.976257 36.352146,150.681259 59.360706,124.980751   C117.404716,60.145760 188.237900,17.966255 274.744476,3.590123   C278.210754,3.014084 281.583618,1.876135 285.000000,0.999998   C321.354218,1.000000 357.708466,1.000000 394.700928,1.441958   C395.263733,31.564356 392.254669,60.945099 386.440857,90.049995   C378.972931,127.436142 365.934326,162.860748 348.600098,196.801941   C348.373413,195.555954 348.485657,194.417572 348.683044,193.294174   C350.927185,180.522812 347.469086,169.709488 336.905457,161.948975   C326.232269,154.107986 314.548859,153.421097 303.106049,159.997635   C291.662598,166.574509 286.416473,176.908051 287.910309,190.175095   C288.274292,193.407639 287.384827,194.784958 284.451263,196.064514   C231.535522,219.145264 178.657150,242.311996 125.832695,265.600800   C122.447304,267.093323 120.439171,266.839905 117.647179,264.264404   C108.494408,255.821381 95.097809,254.299911 83.628265,259.849274   C72.795944,265.090332 65.823486,276.655731 66.690796,288.702240   C67.642830,301.925446 74.496185,311.185699 86.819450,315.963593   C97.843864,320.237885 108.066780,317.755737 117.856598,310.564850   C142.103912,329.010406 166.359360,347.442657 190.555450,365.952454   C191.371552,366.576752 191.589630,367.982788 191.744415,369.090454   C147.492874,398.883392 100.051804,420.344482 47.535461,429.277008   C32.199535,431.885468 16.521320,432.481506 1.000000,434.000000  z"
   id="path1" />
<path
   fill="#FCF6EF"
   opacity="1.000000"
   stroke="none"
   d=" M348.978546,196.916489   C365.934326,162.860748 378.972931,127.436142 386.440857,90.049995   C392.254669,60.945099 395.263733,31.564356 395.169617,1.441958   C417.687561,1.000000 440.375122,1.000000 463.650330,1.333863   C464.736237,2.072133 465.173981,2.688022 465.741516,2.850507   C489.557465,9.668774 504.040924,25.561058 510.852844,49.009052   C511.175629,50.120186 512.266724,51.008118 513.000000,52.000000   C513.000000,118.354225 513.000000,184.708450 512.533936,251.585358   C509.238129,252.037323 506.408783,251.936813 503.578583,251.900345   C443.792236,251.129761 390.585388,269.227692 344.774170,307.892426   C314.440155,333.494385 291.916565,364.828247 277.294495,402.020020   C270.727203,403.086731 264.621429,404.275299 258.470581,405.145294   C256.715790,405.393463 254.502533,405.241943 253.075653,404.351044   C250.436783,402.703278 248.210876,400.388550 245.834763,398.326538   C236.332367,390.080444 226.776917,381.893860 217.367447,373.542877   C212.741302,369.437195 208.391327,365.020294 204.081635,360.459778   C205.584274,359.189758 206.926773,358.211090 208.258286,357.217682   C259.573944,318.931091 303.180542,273.492371 336.628784,218.662201   C339.109497,214.595657 341.035645,210.190811 343.517822,205.819656   C345.536865,202.769547 347.257721,199.843018 348.978546,196.916489  z"
   id="path2"
   style="fill:#f9f9f9" />
<path
   fill="#D41F22"
   opacity="1.000000"
   stroke="none"
   d=" M277.738892,402.020905   C291.916565,364.828247 314.440155,333.494385 344.774170,307.892426   C390.585388,269.227692 443.792236,251.129761 503.578583,251.900345   C506.408783,251.936813 509.238129,252.037323 512.533936,252.054016   C513.000000,321.020905 513.000000,390.041779 512.648315,459.673828   C511.856720,462.054779 511.458832,463.836212 510.970612,465.592529   C504.773407,487.887299 491.086548,503.188965 468.906525,510.501434   C465.981079,511.465912 462.970917,512.173462 460.000000,513.000000   C393.645782,513.000000 327.291534,513.000000 260.306274,512.610352   C260.154327,496.162781 260.633392,480.104919 261.280334,463.748779   C261.974670,459.669189 264.441406,461.883850 265.913208,462.220215   C283.873566,466.324890 301.466431,453.783020 303.013428,435.401855   C303.262604,432.441040 304.476501,431.570007 306.950562,430.752289   C323.534088,425.271118 340.066101,419.634186 356.617279,414.055054   C364.776672,411.304718 372.941254,408.569794 381.212921,405.791138   C382.169250,407.381989 382.898041,408.671936 383.699249,409.915253   C392.031586,422.844727 408.308716,427.812805 422.310242,421.712280   C436.186493,415.666382 443.725281,400.125732 439.949097,385.351013   C436.234985,370.819153 422.115417,360.795715 407.338470,362.200745   C391.808167,363.677490 379.753143,375.944824 379.001770,391.430695   C378.860260,394.347687 377.816925,395.346802 375.263275,396.193787   C357.425354,402.110229 339.642242,408.192047 321.839630,414.215088   C314.966400,416.540436 308.088104,418.850708 301.078003,421.213043   C296.454620,410.471649 288.339569,404.691467 277.738892,402.020905  z"
   id="path3" />
<path
   fill="#FCF6EF"
   opacity="1.000000"
   stroke="none"
   d=" M261.112457,464.047058   C260.633392,480.104919 260.154327,496.162781 259.837646,512.610352   C190.312439,513.000000 120.624878,513.000000 50.342384,512.662598   C49.240273,511.934845 48.789997,511.348297 48.217712,511.182251   C25.096395,504.472504 10.656829,489.150391 3.571760,466.427490   C3.076405,464.838806 1.873745,463.470673 0.999997,462.000000   C1.000000,452.979095 1.000000,443.958221 1.000000,434.468658   C16.521320,432.481506 32.199535,431.885468 47.535461,429.277008   C100.051804,420.344482 147.492874,398.883392 192.102631,369.098724   C196.183533,371.349640 199.797897,373.382568 202.904358,376.014893   C216.312546,387.376648 229.524734,398.969513 242.919525,410.347321   C246.172623,413.110565 246.797302,415.481964 244.871475,419.658905   C238.554276,433.360199 242.932281,448.363434 254.991241,457.420044   C257.356537,459.196411 259.088440,461.816254 261.112457,464.047058  z"
   id="path4"
   style="fill:#f9f9f9" />
<path
   fill="#FCF6EF"
   opacity="1.000000"
   stroke="none"
   d=" M284.531342,0.999998   C281.583618,1.876135 278.210754,3.014084 274.744476,3.590123   C188.237900,17.966255 117.404716,60.145760 59.360706,124.980751   C36.352146,150.681259 17.118872,178.976257 1.346797,209.922180   C1.000000,157.979111 1.000000,105.958214 1.334031,53.349762   C2.197144,51.778820 2.907054,50.850979 3.228747,49.803875   C10.435777,26.345160 25.201065,10.346861 48.998257,3.151441   C50.113697,2.814172 51.004551,1.734122 52.000000,0.999999   C129.354233,1.000000 206.708450,1.000000 284.531342,0.999998  z"
   id="path5"
   style="fill:#f9f9f9" />
<path
   fill="#FEFDFE"
   opacity="1.000000"
   stroke="none"
   d=" M51.531342,0.999999   C51.004551,1.734122 50.113697,2.814172 48.998257,3.151441   C25.201065,10.346861 10.435777,26.345160 3.228747,49.803875   C2.907054,50.850979 2.197144,51.778820 1.334031,52.881104   C1.000000,35.740620 1.000000,18.481239 1.000000,1.000000   C17.686907,1.000000 34.374794,1.000000 51.531342,0.999999  z"
   id="path6" />
<path
   fill="#FEFEFE"
   opacity="1.000000"
   stroke="none"
   d=" M513.000000,51.531342   C512.266724,51.008118 511.175629,50.120186 510.852844,49.009052   C504.040924,25.561058 489.557465,9.668774 465.741516,2.850507   C465.173981,2.688022 464.736237,2.072133 464.118988,1.333863   C480.261536,1.000000 496.523071,1.000000 513.000000,1.000000   C513.000000,17.686943 513.000000,34.374813 513.000000,51.531342  z"
   id="path7" />
<path
   fill="#FEFEFE"
   opacity="1.000000"
   stroke="none"
   d=" M0.999997,462.468658   C1.873745,463.470673 3.076405,464.838806 3.571760,466.427490   C10.656829,489.150391 25.096395,504.472504 48.217712,511.182251   C48.789997,511.348297 49.240273,511.934845 49.873726,512.662598   C33.738453,513.000000 17.476908,513.000000 1.000000,513.000000   C1.000000,496.313049 1.000000,479.625183 0.999997,462.468658  z"
   id="path8" />
<path
   fill="#FEFBFB"
   opacity="1.000000"
   stroke="none"
   d=" M460.468658,513.000000   C462.970917,512.173462 465.981079,511.465912 468.906525,510.501434   C491.086548,503.188965 504.773407,487.887299 510.970612,465.592529   C511.458832,463.836212 511.856720,462.054779 512.648315,460.142517   C513.000000,477.593445 513.000000,495.186890 513.000000,513.000000   C495.646393,513.000000 478.291840,513.000000 460.468658,513.000000  z"
   id="path9" />
<path
   fill="#FCFBFC"
   opacity="1.000000"
   stroke="none"
   d=" M261.280334,463.748779   C259.088440,461.816254 257.356537,459.196411 254.991241,457.420044   C242.932281,448.363434 238.554276,433.360199 244.871475,419.658905   C246.797302,415.481964 246.172623,413.110565 242.919525,410.347321   C229.524734,398.969513 216.312546,387.376648 202.904358,376.014893   C199.797897,373.382568 196.183533,371.349640 192.444672,369.032654   C191.589630,367.982788 191.371552,366.576752 190.555450,365.952454   C166.359360,347.442657 142.103912,329.010406 117.856598,310.564850   C108.066780,317.755737 97.843864,320.237885 86.819450,315.963593   C74.496185,311.185699 67.642830,301.925446 66.690796,288.702240   C65.823486,276.655731 72.795944,265.090332 83.628265,259.849274   C95.097809,254.299911 108.494408,255.821381 117.647179,264.264404   C120.439171,266.839905 122.447304,267.093323 125.832695,265.600800   C178.657150,242.311996 231.535522,219.145264 284.451263,196.064514   C287.384827,194.784958 288.274292,193.407639 287.910309,190.175095   C286.416473,176.908051 291.662598,166.574509 303.106049,159.997635   C314.548859,153.421097 326.232269,154.107986 336.905457,161.948975   C347.469086,169.709488 350.927185,180.522812 348.683044,193.294174   C348.485657,194.417572 348.373413,195.555954 348.600098,196.801941   C347.257721,199.843018 345.536865,202.769547 343.160309,205.828049   C335.861664,213.513214 327.642975,217.511475 317.451843,217.229385   C307.074921,216.942123 299.194275,211.908020 292.733307,203.933090   C237.205246,228.303406 181.982239,252.539810 126.533569,276.875275   C129.538544,285.999512 128.324707,294.222656 124.713455,302.005157   C125.117210,302.518921 125.275681,302.834686 125.528404,303.025879   C150.352997,321.809418 175.175598,340.595703 200.047745,359.316071   C201.099686,360.107819 202.616272,360.282196 203.916382,360.744202   C208.391327,365.020294 212.741302,369.437195 217.367447,373.542877   C226.776917,381.893860 236.332367,390.080444 245.834763,398.326538   C248.210876,400.388550 250.436783,402.703278 253.075653,404.351044   C254.502533,405.241943 256.715790,405.393463 258.470581,405.145294   C264.621429,404.275299 270.727203,403.086731 277.294495,402.020020   C288.339569,404.691467 296.454620,410.471649 301.078003,421.213043   C308.088104,418.850708 314.966400,416.540436 321.839630,414.215088   C339.642242,408.192047 357.425354,402.110229 375.263275,396.193787   C377.816925,395.346802 378.860260,394.347687 379.001770,391.430695   C379.753143,375.944824 391.808167,363.677490 407.338470,362.200745   C422.115417,360.795715 436.234985,370.819153 439.949097,385.351013   C443.725281,400.125732 436.186493,415.666382 422.310242,421.712280   C408.308716,427.812805 392.031586,422.844727 383.699249,409.915253   C382.898041,408.671936 382.169250,407.381989 381.212921,405.791138   C372.941254,408.569794 364.776672,411.304718 356.617279,414.055054   C340.066101,419.634186 323.534088,425.271118 306.950562,430.752289   C304.476501,431.570007 303.262604,432.441040 303.013428,435.401855   C301.466431,453.783020 283.873566,466.324890 265.913208,462.220215   C264.441406,461.883850 261.974670,459.669189 261.280334,463.748779  z"
   id="path10" />
<path
   fill="#06478B"
   opacity="1.000000"
   stroke="none"
   d=" M204.081650,360.459778   C202.616272,360.282196 201.099686,360.107819 200.047745,359.316071   C175.175598,340.595703 150.352997,321.809418 125.528404,303.025879   C125.275681,302.834686 125.117210,302.518921 124.713455,302.005157   C128.324707,294.222656 129.538544,285.999512 126.533569,276.875275   C181.982239,252.539810 237.205246,228.303406 292.733307,203.933090   C299.194275,211.908020 307.074921,216.942123 317.451843,217.229385   C327.642975,217.511475 335.861664,213.513214 342.862122,205.951630   C341.035645,210.190811 339.109497,214.595657 336.628784,218.662201   C303.180542,273.492371 259.573944,318.931091 208.258286,357.217682   C206.926773,358.211090 205.584274,359.189758 204.081650,360.459778  z"
   id="path11" />
</svg>
